<svg xmlns="http://www.w3.org/2000/svg" width="960" height="540" viewBox="0 0 960 540" role="img" aria-label="Dashboard preview">
  <defs>
    <linearGradient id="bg2" x1="0%" y1="0%" x2="100%" y2="100%">
      <stop offset="0%" stop-color="#050508"/>
      <stop offset="100%" stop-color="#18182a"/>
    </linearGradient>
    <linearGradient id="card" x1="0%" y1="0%" x2="100%" y2="100%">
      <stop offset="0%" stop-color="#8b5cf6"/>
      <stop offset="100%" stop-color="#5eead4"/>
    </linearGradient>
  </defs>
  <rect width="960" height="540" rx="20" fill="url(#bg2)"/>
  <rect x="24" y="24" width="180" height="492" rx="18" fill="#ffffff" opacity="0.04" stroke="#ffffff" stroke-opacity="0.08"/>
  <rect x="220" y="24" width="520" height="492" rx="18" fill="#ffffff" opacity="0.03" stroke="#ffffff" stroke-opacity="0.08"/>
  <rect x="760" y="24" width="176" height="492" rx="18" fill="#ffffff" opacity="0.04" stroke="#ffffff" stroke-opacity="0.08"/>
  <text x="44" y="58" fill="#a78bfa" font-family="Segoe UI, Arial, sans-serif" font-size="14" font-weight="700">SIDEBAR</text>
  <text x="240" y="58" fill="#67e8f9" font-family="Segoe UI, Arial, sans-serif" font-size="14" font-weight="700">BUTTON DECK</text>
  <text x="780" y="58" fill="#f9a8d4" font-family="Segoe UI, Arial, sans-serif" font-size="14" font-weight="700">TOOLS</text>
  <rect x="44" y="78" width="140" height="42" rx="12" fill="#8b5cf6" opacity="0.25"/>
  <rect x="44" y="132" width="140" height="42" rx="12" fill="#ffffff" opacity="0.06"/>
  <rect x="44" y="186" width="140" height="42" rx="12" fill="#ffffff" opacity="0.06"/>
  <rect x="240" y="78" width="118" height="96" rx="16" fill="url(#card)" opacity="0.85"/>
  <rect x="370" y="78" width="118" height="96" rx="16" fill="#ef4444" opacity="0.75"/>
  <rect x="500" y="78" width="118" height="96" rx="16" fill="#38bdf8" opacity="0.75"/>
  <rect x="630" y="78" width="94" height="96" rx="16" fill="#22c55e" opacity="0.75"/>
  <rect x="240" y="188" width="118" height="96" rx="16" fill="#f59e0b" opacity="0.75"/>
  <rect x="370" y="188" width="118" height="96" rx="16" fill="#6366f1" opacity="0.75"/>
  <rect x="500" y="188" width="224" height="96" rx="16" fill="#ffffff" opacity="0.08"/>
  <rect x="780" y="78" width="136" height="110" rx="16" fill="#ffffff" opacity="0.07"/>
  <rect x="780" y="204" width="136" height="110" rx="16" fill="#ffffff" opacity="0.07"/>
  <rect x="780" y="330" width="136" height="110" rx="16" fill="#ffffff" opacity="0.07"/>
  <text x="268" y="132" fill="#ffffff" font-family="Segoe UI, Arial, sans-serif" font-size="16" font-weight="700">Stream</text>
  <text x="398" y="132" fill="#ffffff" font-family="Segoe UI, Arial, sans-serif" font-size="16" font-weight="700">Record</text>
  <text x="528" y="132" fill="#ffffff" font-family="Segoe UI, Arial, sans-serif" font-size="16" font-weight="700">Scene</text>
  <text x="658" y="132" fill="#ffffff" font-family="Segoe UI, Arial, sans-serif" font-size="16" font-weight="700">OBS</text>
  <text x="800" y="132" fill="#e2e8f0" font-family="Segoe UI, Arial, sans-serif" font-size="13">CPU / RAM</text>
  <text x="800" y="258" fill="#e2e8f0" font-family="Segoe UI, Arial, sans-serif" font-size="13">Chat</text>
  <text x="800" y="384" fill="#e2e8f0" font-family="Segoe UI, Arial, sans-serif" font-size="13">CS2 HUD</text>
  <text x="240" y="470" fill="#94a3b8" font-family="Segoe UI, Arial, sans-serif" font-size="14">Illustration preview  replace with real screenshots in docs/images/</text>
</svg>
