<svg xmlns="http://www.w3.org/2000/svg" width="960" height="540" viewBox="0 0 960 540" role="img" aria-label="OBS control room preview">
  <defs>
    <linearGradient id="obsbg" x1="0%" y1="0%" x2="100%" y2="100%">
      <stop offset="0%" stop-color="#0b1020"/>
      <stop offset="100%" stop-color="#111827"/>
    </linearGradient>
  </defs>
  <rect width="960" height="540" rx="20" fill="url(#obsbg)"/>
  <text x="32" y="48" fill="#f8fafc" font-family="Segoe UI, Arial, sans-serif" font-size="24" font-weight="700">OBS Studio Control Room</text>
  <rect x="32" y="68" width="72" height="28" rx="14" fill="#ef4444"/>
  <text x="48" y="87" fill="#fff" font-family="Segoe UI, Arial, sans-serif" font-size="12" font-weight="700">LIVE</text>
  <rect x="112" y="68" width="88" height="28" rx="14" fill="#334155"/>
  <text x="128" y="87" fill="#e2e8f0" font-family="Segoe UI, Arial, sans-serif" font-size="12" font-weight="700">REC OFF</text>
  <rect x="32" y="112" width="360" height="220" rx="18" fill="#000" stroke="#ef4444" stroke-width="2"/>
  <text x="48" y="142" fill="#ef4444" font-family="Segoe UI, Arial, sans-serif" font-size="13" font-weight="700">PROGRAM</text>
  <rect x="408" y="112" width="360" height="220" rx="18" fill="#000" stroke="#22d3ee" stroke-width="2"/>
  <text x="424" y="142" fill="#22d3ee" font-family="Segoe UI, Arial, sans-serif" font-size="13" font-weight="700">PREVIEW</text>
  <rect x="784" y="112" width="144" height="220" rx="18" fill="#ffffff" opacity="0.06" stroke="#ffffff" stroke-opacity="0.08"/>
  <rect x="804" y="140" width="104" height="38" rx="12" fill="#ef4444"/>
  <text x="824" y="164" fill="#fff" font-family="Segoe UI, Arial, sans-serif" font-size="13" font-weight="700">Stream</text>
  <rect x="804" y="188" width="104" height="38" rx="12" fill="#334155"/>
  <text x="824" y="212" fill="#fff" font-family="Segoe UI, Arial, sans-serif" font-size="13" font-weight="700">Record</text>
  <rect x="804" y="236" width="104" height="38" rx="12" fill="#8b5cf6"/>
  <text x="814" y="260" fill="#fff" font-family="Segoe UI, Arial, sans-serif" font-size="12" font-weight="700">Go Live</text>
  <rect x="32" y="356" width="148" height="120" rx="14" fill="#ffffff" opacity="0.08" stroke="#a78bfa"/>
  <rect x="192" y="356" width="148" height="120" rx="14" fill="#ffffff" opacity="0.06"/>
  <rect x="352" y="356" width="148" height="120" rx="14" fill="#ffffff" opacity="0.06"/>
  <rect x="512" y="356" width="148" height="120" rx="14" fill="#ffffff" opacity="0.06"/>
  <text x="48" y="382" fill="#e2e8f0" font-family="Segoe UI, Arial, sans-serif" font-size="12">Scene cards</text>
  <text x="32" y="510" fill="#94a3b8" font-family="Segoe UI, Arial, sans-serif" font-size="14">Program / Preview monitors, scene thumbnails, stream controls</text>
</svg>
